<svg xmlns="http://www.w3.org/2000/svg" width="1800" height="980" viewBox="0 0 1800 980">
<rect width="100%" height="100%" fill="white"/>
<defs><marker id="arrow" markerWidth="12" markerHeight="12" refX="10" refY="6" orient="auto"><path d="M0,0 L12,6 L0,12 Z" fill="black"/></marker><marker id="open-triangle" markerWidth="14" markerHeight="14" refX="12" refY="7" orient="auto"><path d="M0,0 L14,7 L0,14 Z" fill="white" stroke="black" stroke-width="1.8"/></marker></defs>
<rect x="340" y="55" width="1400" height="870" fill="white" stroke="black" stroke-width="3"/>
<text x="1040" y="112" text-anchor="middle" font-family="Arial" font-size="30">Staff Support and Billing Use Case Diagram</text>
<line x1="189.0" y1="296.0" x2="470.0" y2="258.5" stroke="black" stroke-width="2.5" marker-end="url(#arrow)"/>
<line x1="189.0" y1="296.0" x2="930.0" y2="247.0" stroke="black" stroke-width="2.5" marker-end="url(#arrow)"/>
<line x1="189.0" y1="296.0" x2="1390.0" y2="243.3" stroke="black" stroke-width="2.5" marker-end="url(#arrow)"/>
<line x1="189.0" y1="296.0" x2="470.0" y2="374.1" stroke="black" stroke-width="2.5" marker-end="url(#arrow)"/>
<line x1="189.0" y1="296.0" x2="1390.0" y2="405.8" stroke="black" stroke-width="2.5" marker-end="url(#arrow)"/>
<line x1="930.0" y1="421.0" x2="800.0" y2="421.0" stroke="black" stroke-width="2.5" stroke-dasharray="10 8" marker-end="url(#arrow)"/>
<rect x="795.0" y="389.0" width="140" height="30" fill="white"/>
<text x="865.0" y="411.0" text-anchor="middle" font-family="Arial" font-size="20">&lt;&lt;extend&gt;&gt;</text>
<line x1="800.0" y1="572.8" x2="1390.0" y2="454.2" stroke="black" stroke-width="2.5" stroke-dasharray="10 8" marker-end="url(#arrow)"/>
<rect x="1025.0" y="481.5" width="140" height="30" fill="white"/>
<text x="1095.0" y="503.5" text-anchor="middle" font-family="Arial" font-size="20">&lt;&lt;extend&gt;&gt;</text>
<circle cx="155.0" cy="266.0" r="20" fill="white" stroke="black" stroke-width="3"/>
<line x1="155.0" y1="286.0" x2="155.0" y2="338.0" stroke="black" stroke-width="3"/>
<line x1="120.0" y1="306.0" x2="190.0" y2="306.0" stroke="black" stroke-width="3"/>
<line x1="155.0" y1="338.0" x2="121.0" y2="380.0" stroke="black" stroke-width="3"/>
<line x1="155.0" y1="338.0" x2="189.0" y2="380.0" stroke="black" stroke-width="3"/>
<text x="155.0" y="412.0" text-anchor="middle" font-family="Arial" font-size="23">Venue Staff</text>
<ellipse cx="635.0" cy="236.0" rx="165.0" ry="56.0" fill="white" stroke="black" stroke-width="3"/>
<text x="635.0" y="244.0" text-anchor="middle" font-family="Arial" font-size="21">Report field/service issue</text>
<rect x="436.0" y="154.0" width="108" height="46" fill="white" stroke="black" stroke-width="3"/>
<text x="490.0" y="185.0" text-anchor="middle" font-family="Arial" font-size="21">UC-22</text>
<ellipse cx="1095.0" cy="236.0" rx="165.0" ry="56.0" fill="white" stroke="black" stroke-width="3"/>
<text x="1095.0" y="244.0" text-anchor="middle" font-family="Arial" font-size="21">Resolve field/service issue</text>
<rect x="896.0" y="154.0" width="108" height="46" fill="white" stroke="black" stroke-width="3"/>
<text x="950.0" y="185.0" text-anchor="middle" font-family="Arial" font-size="21">UC-23</text>
<ellipse cx="1555.0" cy="236.0" rx="165.0" ry="56.0" fill="white" stroke="black" stroke-width="3"/>
<text x="1555.0" y="244.0" text-anchor="middle" font-family="Arial" font-size="21">View payment history</text>
<rect x="1356.0" y="154.0" width="108" height="46" fill="white" stroke="black" stroke-width="3"/>
<text x="1410.0" y="185.0" text-anchor="middle" font-family="Arial" font-size="21">UC-39</text>
<ellipse cx="635.0" cy="421.0" rx="165.0" ry="56.0" fill="white" stroke="black" stroke-width="3"/>
<text x="635.0" y="429.0" text-anchor="middle" font-family="Arial" font-size="21">View invoice/payment status</text>
<rect x="436.0" y="339.0" width="108" height="46" fill="white" stroke="black" stroke-width="3"/>
<text x="490.0" y="370.0" text-anchor="middle" font-family="Arial" font-size="21">UC-40</text>
<ellipse cx="1095.0" cy="421.0" rx="165.0" ry="56.0" fill="white" stroke="black" stroke-width="3"/>
<text x="1095.0" y="429.0" text-anchor="middle" font-family="Arial" font-size="21">Confirm remaining payment</text>
<rect x="896.0" y="339.0" width="108" height="46" fill="white" stroke="black" stroke-width="3"/>
<text x="950.0" y="370.0" text-anchor="middle" font-family="Arial" font-size="21">UC-37</text>
<ellipse cx="1555.0" cy="421.0" rx="165.0" ry="56.0" fill="white" stroke="black" stroke-width="3"/>
<text x="1555.0" y="429.0" text-anchor="middle" font-family="Arial" font-size="21">Manage refund requests</text>
<rect x="1356.0" y="339.0" width="108" height="46" fill="white" stroke="black" stroke-width="3"/>
<text x="1410.0" y="370.0" text-anchor="middle" font-family="Arial" font-size="21">UC-42</text>
<ellipse cx="635.0" cy="606.0" rx="165.0" ry="56.0" fill="white" stroke="black" stroke-width="3"/>
<text x="635.0" y="614.0" text-anchor="middle" font-family="Arial" font-size="21">Process online refund</text>
<rect x="436.0" y="524.0" width="108" height="46" fill="white" stroke="black" stroke-width="3"/>
<text x="490.0" y="555.0" text-anchor="middle" font-family="Arial" font-size="21">UC-41</text>
</svg>
